<svg width="1024" height="1024" viewBox="0 0 1024 1024" fill="none" xmlns="http://www.w3.org/2000/svg">
<path d="M561.389 837C516.482 837 474.12 828.667 434.306 812C394.954 794.87 360.231 771.491 330.139 741.861C300.509 712.231 277.13 677.741 260 638.389C243.333 599.037 235 556.907 235 512C235 467.093 243.333 424.963 260 385.611C277.13 346.259 300.509 311.768 330.139 282.139C360.231 252.509 394.954 229.361 434.306 212.694C474.12 195.565 516.482 187 561.389 187C605.833 187 647.5 195.333 686.389 212C725.278 228.204 759.537 250.657 789.167 279.361L766.25 375.194C744.954 340.935 716.25 313.62 680.139 293.25C644.491 272.417 604.907 262 561.389 262C515.556 262 474.12 273.343 437.083 296.028C400.509 318.25 371.343 348.343 349.583 386.306C327.824 423.806 316.944 465.704 316.944 512C316.944 557.833 327.824 599.732 349.583 637.694C371.343 675.657 400.509 705.982 437.083 728.667C474.12 750.889 515.556 762 561.389 762C605.37 762 645.185 751.583 680.833 730.75C716.482 709.917 744.954 682.602 766.25 648.806L789.167 744.639C759.537 772.88 725.278 795.333 686.389 812C647.5 828.667 605.833 837 561.389 837Z" fill="url(#paint0_linear_5_2)"/>
<defs>
<linearGradient id="paint0_linear_5_2" x1="818.333" y1="491.5" x2="193.333" y2="491.5" gradientUnits="userSpaceOnUse">
<stop stop-color="#C7A47A"/>
<stop offset="0.5" stop-color="#FFEFB5"/>
<stop offset="1" stop-color="#C7A47A"/>
</linearGradient>
</defs>
</svg>
